<svg xmlns="http://www.w3.org/2000/svg" viewBox="0 0 512 512" role="img" aria-label="BookReader icon">
  <defs>
    <linearGradient id="bg" x1="72" y1="456" x2="430" y2="46" gradientUnits="userSpaceOnUse">
      <stop offset="0" stop-color="#0f4f59"/>
      <stop offset="0.52" stop-color="#147462"/>
      <stop offset="1" stop-color="#1f9b73"/>
    </linearGradient>
    <linearGradient id="page" x1="138" y1="120" x2="380" y2="392" gradientUnits="userSpaceOnUse">
      <stop offset="0" stop-color="#fffdf4"/>
      <stop offset="1" stop-color="#e9efe5"/>
    </linearGradient>
    <linearGradient id="gold" x1="132" y1="137" x2="382" y2="376" gradientUnits="userSpaceOnUse">
      <stop offset="0" stop-color="#ffd873"/>
      <stop offset="1" stop-color="#d69424"/>
    </linearGradient>
    <filter id="shadow" x="-20%" y="-20%" width="140%" height="140%">
      <feDropShadow dx="0" dy="18" stdDeviation="18" flood-color="#072c31" flood-opacity="0.42"/>
    </filter>
  </defs>

  <rect width="512" height="512" rx="108" fill="url(#bg)"/>
  <circle cx="372" cy="126" r="46" fill="#f8df87"/>
  <circle cx="390" cy="110" r="44" fill="#1f9b73" opacity="0.9"/>

  <g filter="url(#shadow)">
    <path d="M126 120c0-15.5 12.5-28 28-28h88c20 0 37.8 9.9 48.6 25 10.8-15.1 28.6-25 48.6-25H358c15.5 0 28 12.5 28 28v282c0 11-9 20-20 20h-28.8c-20 0-37.8 9.9-48.6 25-10.8-15.1-28.6-25-48.6-25H146c-11 0-20-9-20-20V120z" fill="#083f45"/>
    <path d="M140 116c0-7.7 6.3-14 14-14h86c24.3 0 44 19.7 44 44v272c-11.8-10.1-27.2-16.2-44-16.2h-86c-7.7 0-14-6.3-14-14V116z" fill="url(#page)"/>
    <path d="M298 146c0-24.3 19.7-44 44-44h16c7.7 0 14 6.3 14 14v272c0 7.7-6.3 14-14 14h-16c-16.8 0-32.2 6.1-44 16.2V146z" fill="url(#page)"/>
    <rect x="284" y="118" width="14" height="302" rx="7" fill="#0f6564"/>
    <path d="M162 156h96v12h-96zM162 356h96v12h-96zM320 156h34v12h-34zM320 356h34v12h-34z" fill="url(#gold)"/>
    <path d="M196 222c24-20 47-23 66-9 15 11 25 30 24 58-22-16-48-16-76 0-16 9-30 22-42 38 0-40 9-70 28-87z" fill="#116f72" opacity="0.96"/>
    <path d="M202 239c15-13 30-17 43-10 11 6 18 19 20 39-16-6-34-3-53 8-9 5-17 12-24 20 0-25 5-44 14-57z" fill="#f6f0d7"/>
    <circle cx="238" cy="248" r="9" fill="#d99b2b"/>
  </g>
</svg>
